# xmcd
#
# Track frame offsets:
#	150
#	19153
#	38067
#	54596
#	65969
#	83082
#	94621
#	109628
#	126876
#	140309
#	154760
#	171796
#	190214
#
# Disc length: 2721 seconds
#
# Revision: 1
# Processed by: cddbd v1.5.1PL0 Copyright (c) Steve Scherf et al.
# Submitted via: audiograbber 1.83.01
#
DISCID=aa0a9f0d
DTITLE=Lasse Johansens Orkester - Hematt att
DYEAR=1900
DGENRE=Norskt
TTITLE0=Fem mann i et danseband
TTITLE1=Ingen er som du
TTITLE2=Rosalita
TTITLE3=Du var som en engel
TTITLE4=September
TTITLE5=Sveiser'n
TTITLE6=Gull og grönne skoger
TTITLE7=Blyfri og kjaerlighet
TTITLE8=Je vil rese bort
TTITLE9=Elverom
TTITLE10=Elgvisa
TTITLE11=Je ringer på fredag
TTITLE12=Sammar
EXTD=
EXTT0=
EXTT1=
EXTT2=
EXTT3=
EXTT4=
EXTT5=
EXTT6=
EXTT7=
EXTT8=
EXTT9=
EXTT10=
EXTT11=
EXTT12=
PLAYORDER=
